<?xml version="1.0" encoding="UTF-8"?>
<svg id="Layer_2" xmlns="http://www.w3.org/2000/svg" version="1.1" viewBox="0 0 2000 1000">
  <!-- Generator: Adobe Illustrator 29.8.3, SVG Export Plug-In . SVG Version: 2.1.1 Build 3)  -->
  <defs>
    <style>
      .st0 {
        fill: #a6c9eb;
        stroke: #000;
      }

      .st0, .st1, .st2 {
        stroke-miterlimit: 10;
      }

      .st1 {
        fill: none;
      }

      .st1, .st2 {
        stroke: #fff;
        stroke-width: 2.83px;
      }

      .st2 {
        fill: #fff;
      }
    </style>
  </defs>
  <rect class="st0" x="4" y="3.04" width="1992" height="993.92" rx="241.96" ry="241.96"/>
  <line class="st1" x1="1000.01" y1="3.07" x2="1000" y2="996.96"/>
  <circle class="st2" cx="1000.01" cy="500" r="9.87"/>
  <line class="st1" x1="983.16" y1="920.65" x2="1016.84" y2="920.65"/>
  <line class="st1" x1="983.9" y1="79.35" x2="1017.58" y2="79.35"/>
  <line class="st1" x1="1793.32" y1="79.35" x2="1827" y2="79.35"/>
  <line class="st1" x1="173.01" y1="79.35" x2="206.69" y2="79.35"/>
  <line class="st1" x1="173.01" y1="920.65" x2="206.69" y2="920.65"/>
  <line class="st1" x1="1794.8" y1="920.65" x2="1828.48" y2="920.65"/>
  <line class="st1" x1="189.85" y1="96.19" x2="189.85" y2="62.52"/>
  <line class="st1" x1="1810.16" y1="96.19" x2="1810.16" y2="62.52"/>
  <line class="st1" x1="1811.64" y1="937.48" x2="1811.64" y2="903.81"/>
  <line class="st1" x1="189.85" y1="937.48" x2="189.85" y2="903.81"/>
  <rect class="st1" x="176.08" y="441.56" width="47.83" height="121.08"/>
  <rect class="st1" x="1762.33" y="439.46" width="47.83" height="121.08"/>
  <rect class="st1" x="144.67" y="379.38" width="194.14" height="244.51"/>
  <rect class="st1" x="1647.38" y="379.38" width="194.14" height="244.51"/>
  <line class="st1" x1="160.14" y1="461.67" x2="176.11" y2="461.67"/>
  <line class="st1" x1="160.14" y1="543.45" x2="176.11" y2="543.45"/>
  <line class="st1" x1="1810.16" y1="461.67" x2="1826.13" y2="461.67"/>
  <line class="st1" x1="1810.14" y1="543.45" x2="1826.11" y2="543.45"/>
</svg>