<?xml version="1.0" encoding="UTF-8"?>
<svg id="Layer_2" data-name="Layer 2" xmlns="http://www.w3.org/2000/svg" viewBox="0 0 11347.09 5677.8">
  <defs>
    <style>
      .cls-1 {
        fill: #fff;
      }

      .cls-1, .cls-2 {
        stroke: #fff;
      }

      .cls-1, .cls-2, .cls-3 {
        stroke-miterlimit: 10;
        stroke-width: 8.5px;
      }

      .cls-2 {
        fill: none;
      }

      .cls-3 {
        fill: #a6c9eb;
        stroke: #000;
      }
    </style>
  </defs>
  <rect class="cls-3" x="4.25" y="4.25" width="11338.58" height="5669.29" rx="1474.52" ry="1474.52"/>
  <line class="cls-2" x1="5680.33" y1="4.25" x2="5666.75" y2="5673.54"/>
  <circle class="cls-1" cx="5673.54" cy="2838.9" r="37.35"/>
  <line class="cls-2" x1="5597.94" y1="5248.35" x2="5749.14" y2="5248.35"/>
  <line class="cls-2" x1="5597.94" y1="429.45" x2="5749.14" y2="429.45"/>
  <line class="cls-2" x1="10275.11" y1="429.45" x2="10426.31" y2="429.45"/>
  <line class="cls-2" x1="10350.71" y1="505.05" x2="10350.71" y2="353.85"/>
  <line class="cls-2" x1="10275.11" y1="5248.35" x2="10426.31" y2="5248.35"/>
  <line class="cls-2" x1="10350.71" y1="5323.95" x2="10350.71" y2="5172.75"/>
  <line class="cls-2" x1="920.78" y1="5248.35" x2="1071.98" y2="5248.35"/>
  <line class="cls-2" x1="996.38" y1="5323.95" x2="996.38" y2="5172.75"/>
  <line class="cls-2" x1="920.78" y1="429.45" x2="1071.98" y2="429.45"/>
  <line class="cls-2" x1="996.38" y1="505.05" x2="996.38" y2="353.85"/>
  <rect class="cls-2" x="812.13" y="2130.24" width="1133.86" height="1417.32"/>
  <rect class="cls-2" x="9401.1" y="2130.24" width="1133.86" height="1417.32"/>
  <rect class="cls-2" x="996.38" y="2484.57" width="283.46" height="708.66"/>
  <rect class="cls-2" x="10067.24" y="2484.57" width="283.46" height="708.66"/>
</svg>